<svg xmlns="http://www.w3.org/2000/svg" viewBox="0 0 200 60" fill="none">
  <!-- Ícone Folha/Planta estilizada -->
  <g transform="translate(10, 10)">
    <!-- Folha esquerda -->
    <path d="M15 35C15 35 5 25 5 15C5 8 10 3 15 3C20 3 25 8 25 15C25 25 15 35 15 35Z" fill="#4A5D23"/>
    <path d="M15 35V8" stroke="#3A4A1C" stroke-width="1.5" stroke-linecap="round"/>
    <path d="M15 20C12 18 8 18 5 20" stroke="#6B7B3D" stroke-width="1" stroke-linecap="round" opacity="0.6"/>
    <path d="M15 14C18 12 22 12 25 14" stroke="#6B7B3D" stroke-width="1" stroke-linecap="round" opacity="0.6"/>
    
    <!-- Folha direita -->
    <path d="M25 30C25 30 35 22 35 14C35 8 30 4 25 4C20 4 15 8 15 14C15 22 25 30 25 30Z" fill="#6B7B3D"/>
    <path d="M25 30V10" stroke="#4A5D23" stroke-width="1.5" stroke-linecap="round"/>
    <path d="M25 18C28 16 32 16 35 18" stroke="#8C9A5A" stroke-width="1" stroke-linecap="round" opacity="0.6"/>
  </g>
  
  <!-- Texto Criativalia -->
  <text x="55" y="38" font-family="Georgia, 'Playfair Display', serif" font-size="28" font-weight="700" fill="#4A5D23" letter-spacing="-0.5">
    Criativalia
  </text>
  
  <!-- Tagline -->
  <text x="57" y="50" font-family="Inter, system-ui, sans-serif" font-size="9" font-weight="500" fill="#6B7B3D" letter-spacing="0.15em" text-transform="uppercase">
    DECORAÇÃO & INTERIORES
  </text>
</svg>
